# xmcd
#
# Track frame offsets: 
#        150
#        15764
#        29690
#        47362
#        64800
#        80642
#        100043
#        118728
#        134333
#        151517
#
# Disc length: 2236 seconds
#
# Revision: 0
# Processed by: cddbd v1.5.2PL0 Copyright (c) Steve Scherf et al.
# Submitted via: ExactAudioCopyFreeDBPlugin 1.0
#
DISCID=7008ba0a
DTITLE=Lyla Foy - Mirrors the Sky
DYEAR=2014
DGENRE=Alternative
TTITLE0=Honeymoon
TTITLE1=I Only
TTITLE2=Impossible
TTITLE3=Rumour
TTITLE4=Easy
TTITLE5=No Secrets
TTITLE6=Only Human
TTITLE7=Feather Tongue
TTITLE8=Someday
TTITLE9=Warning
EXTD=
EXTT0=
EXTT1=
EXTT2=
EXTT3=
EXTT4=
EXTT5=
EXTT6=
EXTT7=
EXTT8=
EXTT9=
PLAYORDER=
